HIERARCHY
ROOT Hips
{
	OFFSET 48.988499 10.810385 94.098396
	CHANNELS 6 Xposition Yposition Zposition Xrotation Yrotation Zrotation
	JOINT spine
	{
		OFFSET 0.000000 -0.448574 7.800591
		CHANNELS 3 Xrotation Yrotation Zrotation
		JOINT spine1
		{
			OFFSET 0.000000 -0.000002 10.136398
			CHANNELS 3 Xrotation Yrotation Zrotation
			JOINT spine2
			{
				OFFSET 0.000000 -0.000002 9.712509
				CHANNELS 3 Xrotation Yrotation Zrotation
				JOINT Neck
				{
					OFFSET 0.000000 -1.188874 24.936096
					CHANNELS 3 Xrotation Yrotation Zrotation
					JOINT Head
					{
						OFFSET 0.000000 -0.000001 7.533844
						CHANNELS 3 Xrotation Yrotation Zrotation
						End Site
						{
							OFFSET 0.000000 6.014017 18.236099
						}
					}
				}
				JOINT RightShoulder
				{
					OFFSET -4.089649 0.569455 10.488800
					CHANNELS 3 Xrotation Yrotation Zrotation
					JOINT RightArm
					{
						OFFSET 0.000000 -0.000002 13.757004
						CHANNELS 3 Xrotation Yrotation Zrotation
						JOINT RightArmRoll
						{
							OFFSET 0.000000 -0.000001 6.944778
							CHANNELS 3 Xrotation Yrotation Zrotation
							JOINT RightForeArm
							{
								OFFSET 0.000000 -0.000004 20.227692
								CHANNELS 3 Xrotation Yrotation Zrotation
								JOINT RightForeArmRoll
								{
									OFFSET 0.000000 -0.000001 7.793121
									CHANNELS 3 Xrotation Yrotation Zrotation
									JOINT RightHand
									{
										OFFSET 0.000000 -0.000003 15.639099
										CHANNELS 3 Xrotation Yrotation Zrotation
										End Site
										{
											OFFSET 0.000000 0.000000 0.100006
										}
									}
								}
							}
						}
					}
				}
				JOINT LeftShoulder
				{
					OFFSET 4.089649 0.569455 10.488800
					CHANNELS 3 Xrotation Yrotation Zrotation
					JOINT LeftArm
					{
						OFFSET 0.000000 -0.000002 13.757004
						CHANNELS 3 Xrotation Yrotation Zrotation
						JOINT LeftArmRoll
						{
							OFFSET 0.000000 -0.000001 6.944778
							CHANNELS 3 Xrotation Yrotation Zrotation
							JOINT LeftForeArm
							{
								OFFSET 0.000000 -0.000004 20.227692
								CHANNELS 3 Xrotation Yrotation Zrotation
								JOINT LeftForeArmRoll
								{
									OFFSET 0.000000 -0.000001 7.793121
									CHANNELS 3 Xrotation Yrotation Zrotation
									JOINT LeftHand
									{
										OFFSET 0.000000 -0.000003 15.639099
										CHANNELS 3 Xrotation Yrotation Zrotation
										End Site
										{
											OFFSET 0.000000 0.000000 0.100006
										}
									}
								}
							}
						}
					}
				}
			}
		}
	}
	JOINT RightUpLeg
	{
		OFFSET -6.914158 1.063580 -1.267883
		CHANNELS 3 Xrotation Yrotation Zrotation
		JOINT RightUpLegRoll
		{
			OFFSET 0.000000 -0.000003 18.337799
			CHANNELS 3 Xrotation Yrotation Zrotation
			JOINT RightLeg
			{
				OFFSET 0.000000 0.000004 -22.708504
				CHANNELS 3 Xrotation Yrotation Zrotation
				JOINT RightLegRoll
				{
					OFFSET 0.000000 -0.000004 22.782799
					CHANNELS 3 Xrotation Yrotation Zrotation
					JOINT RightFoot
					{
						OFFSET 0.000000 -0.000003 18.962898
						CHANNELS 3 Xrotation Yrotation Zrotation
						JOINT RightToeBase
						{
							OFFSET 0.000000 -0.000003 15.852005
							CHANNELS 3 Xrotation Yrotation Zrotation
							End Site
							{
								OFFSET 0.006718 0.884892 7.677017
							}
						}
					}
				}
			}
		}
	}
	JOINT LeftUpLeg
	{
		OFFSET 6.914158 1.063580 -1.267883
		CHANNELS 3 Xrotation Yrotation Zrotation
		JOINT LeftUpLegRoll
		{
			OFFSET 0.000000 -0.000003 18.337898
			CHANNELS 3 Xrotation Yrotation Zrotation
			JOINT LeftLeg
			{
				OFFSET 0.000000 -0.000004 22.708405
				CHANNELS 3 Xrotation Yrotation Zrotation
				JOINT LeftLegRoll
				{
					OFFSET 0.000000 -0.000004 22.993393
					CHANNELS 3 Xrotation Yrotation Zrotation
					JOINT LeftFoot
					{
						OFFSET 0.000000 -0.000003 18.752197
						CHANNELS 3 Xrotation Yrotation Zrotation
						JOINT LeftToeBase
						{
							OFFSET 0.000000 -0.000003 15.852005
							CHANNELS 3 Xrotation Yrotation Zrotation
							End Site
							{
								OFFSET -0.030113 0.884892 7.677017
							}
						}
					}
				}
			}
		}
	}
}
MOTION
Frames: 11
Frame Time: 0.041667
47.961399 -2.385071 103.219009 -0.860182 -3.256235 4.641568 -1.171813 0.344312 -0.004666 1.659190 0.688646 -0.005669 3.304308 0.688527 -0.013921 1.887461 16.904247 -4.038044 -2.232543 -17.737677 -4.986467 -17.167455 -41.139428 -20.071971 753.082342 -35.494806 801.771263 -0.000001 0.000000 0.000001 54.462849 0.110310 0.195172 -0.000001 0.000007 -3.000000 -5.000317 -7.998747 0.000205 -21.071439 45.899650 25.131420 -155.920173 125.732089 117.915675 -0.000004 0.000011 0.000005 54.762578 -2.994215 0.933861 0.000003 0.000025 3.000013 -5.000200 7.999683 -0.000061 -10.223780 -165.983022 1.854013 -179.999991 0.000006 -1.279003 156.951832 3.125486 -0.205107 -0.000000 0.000004 -0.101194 65.917910 7.127099 1.764523 25.456959 -7.355618 0.000001 -12.038265 169.908100 0.485710 -0.000005 -0.000004 -1.076131 -26.361629 3.854824 1.395884 -0.000005 -0.000003 -0.365239 69.806296 -6.871179 -2.117576 25.456964 7.355618 -0.000012 
47.979500 -2.322303 103.323013 -0.836972 -3.200600 4.594857 -1.169192 0.333644 -0.006813 1.664463 0.667343 -0.010092 3.309575 0.667172 -0.018088 2.012954 16.895967 -4.051995 -2.442220 -17.753677 -5.010154 -17.112496 -41.540063 -20.005404 753.010761 -36.063611 801.415492 0.000000 -0.000001 -0.000001 54.357794 0.086431 0.172471 0.000001 0.000007 -2.999999 -5.000322 -7.998744 0.000204 -21.022141 46.176935 25.064421 -156.276709 125.205127 118.216258 -0.000004 0.000013 0.000001 54.506494 -3.011281 0.948818 -0.000001 0.000021 3.000009 -5.000209 7.999681 -0.000058 -10.518536 -166.260697 1.777207 -179.999991 0.000004 -1.275997 156.624803 3.033361 -0.225742 -0.000000 0.000005 -0.084197 65.948147 7.116688 1.787333 25.456960 -7.355619 0.000002 -12.247187 170.012752 0.455673 -0.000005 -0.000006 -1.073110 -26.724524 3.938758 1.434387 -0.000005 -0.000001 -0.367841 69.810680 -6.870984 -2.116570 25.456957 7.355618 -0.000011 
47.921101 -2.323750 103.464996 -0.815611 -3.143873 4.546797 -1.165719 0.322795 -0.008685 1.671396 0.645670 -0.013967 3.316511 0.645455 -0.021702 2.132588 16.883270 -4.065243 -2.645354 -17.764142 -5.033057 -17.059827 -41.943072 -19.942189 752.947213 -36.626770 801.071961 -0.000000 0.000000 0.000002 54.247951 0.064121 0.149849 0.000001 0.000006 -2.999999 -5.000319 -7.998745 0.000203 -20.974237 46.447349 24.999577 -156.618710 124.673874 118.497990 -0.000004 0.000012 0.000006 54.255796 -3.032100 0.962713 -0.000002 0.000025 3.000012 -5.000207 7.999681 -0.000056 -10.809627 -166.542046 1.703058 -179.999991 0.000004 -1.273006 156.302390 2.940748 -0.247038 -0.000001 0.000003 -0.067428 65.977476 7.106393 1.809723 25.456964 -7.355619 -0.000000 -12.453691 170.114344 0.422813 -0.000005 -0.000005 -1.070129 -27.088740 4.024186 1.474347 -0.000005 -0.000003 -0.370414 69.816186 -6.870961 -2.115224 25.456960 7.355617 -0.000013 
47.944904 -2.327131 103.579010 -0.796966 -3.086602 4.497625 -1.161129 0.311973 -0.010252 1.680590 0.624047 -0.017237 3.325697 0.623794 -0.024713 2.243375 16.864500 -4.077598 -2.839175 -17.768139 -5.054873 -17.010361 -42.349628 -19.883552 752.890605 -37.184537 800.741380 -0.000001 -0.000000 -0.000001 54.135024 0.043215 0.127288 0.000003 0.000006 -2.999998 -5.000318 -7.998744 0.000203 -20.928135 46.711107 24.937330 -156.946040 124.139658 118.761280 -0.000003 0.000012 0.000005 54.010701 -3.056799 0.975710 -0.000002 0.000025 3.000010 -5.000206 7.999681 -0.000058 -11.093635 -166.822917 1.631629 -179.999991 0.000005 -1.270000 155.987874 2.847725 -0.269125 -0.000000 0.000006 -0.051008 66.005630 7.096380 1.831766 25.456964 -7.355617 0.000001 -12.654941 170.215732 0.387327 -0.000005 -0.000005 -1.067200 -27.450155 4.110823 1.515437 -0.000005 -0.000002 -0.372895 69.822995 -6.871051 -2.113421 25.456967 7.355615 -0.000011 
47.903404 -2.315850 103.689011 -0.781945 -3.029379 4.447564 -1.155133 0.301387 -0.011483 1.692594 0.602890 -0.019841 3.337695 0.602607 -0.027064 2.342331 16.837822 -4.088834 -3.020938 -17.764439 -5.075314 -16.965264 -42.760662 -19.830834 752.839515 -37.737068 800.424295 0.000001 0.000000 -0.000002 54.020403 0.023545 0.104770 0.000003 0.000004 -3.000002 -5.000320 -7.998748 0.000203 -20.884340 46.968708 24.878255 -157.258016 123.603543 119.006102 -0.000002 0.000012 0.000006 53.771019 -3.085539 0.987957 0.000001 0.000025 3.000011 -5.000206 7.999680 -0.000058 -11.367220 -167.105127 1.563914 -179.999991 0.000004 -1.268006 155.684559 2.755268 -0.292738 -0.000000 0.000005 -0.035059 66.032514 7.086685 1.853161 25.456960 -7.355618 0.000001 -12.848230 170.315794 0.350313 -0.000005 -0.000005 -1.064331 -27.804855 4.198413 1.557319 -0.000005 -0.000003 -0.375222 69.830925 -6.871344 -2.111181 25.456960 7.355616 -0.000011 
47.920399 -2.312293 103.814003 -0.771420 -2.972741 4.396882 -1.147445 0.291246 -0.012352 1.707969 0.582617 -0.021723 3.353063 0.582312 -0.028702 2.426440 16.801675 -4.098751 -3.187882 -17.751817 -5.094067 -16.925484 -43.177212 -19.785274 752.792687 -38.284607 800.121527 -0.000000 0.000001 -0.000001 53.905810 0.004957 0.082280 0.000002 0.000005 -3.000001 -5.000321 -7.998742 0.000205 -20.843591 47.220410 24.823021 -157.554323 123.066977 119.232536 -0.000004 0.000012 0.000005 53.536665 -3.118490 0.999626 0.000001 0.000026 3.000008 -5.000201 7.999682 -0.000058 -11.627057 -167.384564 1.499759 -179.999991 0.000004 -1.265001 155.395437 2.664365 -0.316522 0.000000 0.000004 -0.019702 66.058243 7.077306 1.873795 25.456960 -7.355619 0.000000 -13.030572 170.416430 0.312173 -0.000005 -0.000005 -1.061540 -28.148734 4.286725 1.599616 -0.000006 -0.000002 -0.377333 69.840084 -6.871815 -2.108496 25.456967 7.355614 -0.000011 
47.876701 -2.301052 103.918999 -0.766283 -2.917280 4.345818 -1.137792 0.281762 -0.012827 1.727284 0.563647 -0.022821 3.372383 0.563329 -0.029572 2.492719 16.754323 -4.107128 -3.337253 -17.728977 -5.110794 -16.891992 -43.600267 -19.748111 752.748919 -38.827447 799.833948 0.000000 -0.000000 -0.000004 53.792808 -0.012716 0.059799 0.000000 0.000007 -3.000002 -5.000320 -7.998743 0.000202 -20.806356 47.466516 24.772157 -157.834907 122.531026 119.441157 -0.000002 0.000012 0.000006 53.307745 -3.155774 1.010873 -0.000000 0.000026 3.000011 -5.000201 7.999681 -0.000058 -11.869815 -167.661077 1.439625 -179.999991 0.000004 -1.263006 155.123869 2.575055 -0.340578 -0.000001 0.000004 -0.005059 66.082511 7.068356 1.893732 25.456964 -7.355619 0.000002 -13.199329 170.517448 0.273826 -0.000005 -0.000004 -1.058820 -28.477857 4.375514 1.641908 -0.000006 -0.000002 -0.379164 69.850576 -6.872460 -2.105364 25.456957 7.355617 -0.000011 
47.878002 -2.271651 104.018013 -0.767435 -2.863524 4.294620 -1.125873 0.273143 -0.012883 1.751120 0.546397 -0.023076 3.396214 0.546079 -0.029620 2.538163 16.694121 -4.113807 -3.466292 -17.695000 -5.125207 -16.866160 -44.031016 -19.720935 752.706845 -39.365648 799.562162 0.000001 -0.000001 -0.000001 53.683009 -0.029656 0.037317 0.000003 0.000006 -3.000001 -5.000320 -7.998742 0.000205 -20.773283 47.707420 24.726301 -158.099099 121.997096 119.631733 -0.000002 0.000012 0.000006 53.084281 -3.197579 1.021891 0.000001 0.000025 3.000013 -5.000201 7.999681 -0.000060 -12.092093 -167.932536 1.383556 -179.999991 0.000005 -1.260001 154.873160 2.488301 -0.364497 -0.000001 0.000006 0.008749 66.105248 7.059920 1.912574 25.456953 -7.355619 0.000001 -13.351649 170.619765 0.235970 -0.000005 -0.000004 -1.056190 -28.788192 4.464567 1.683756 -0.000005 -0.000003 -0.380655 69.862269 -6.873245 -2.102079 25.456957 7.355617 -0.000012 
47.848206 -2.273628 104.130997 -0.775753 -2.812053 4.243560 -1.111422 0.265597 -0.012488 1.780027 0.531286 -0.022430 3.425117 0.530976 -0.028793 2.559829 16.619220 -4.118624 -3.572246 -17.648485 -5.137006 -16.849011 -44.470337 -19.705051 752.665536 -39.899359 799.307259 0.000001 0.000000 -0.000000 53.577824 -0.046016 0.014819 0.000001 0.000008 -3.000002 -5.000320 -7.998748 0.000203 -20.744804 47.943318 24.685916 -158.346393 121.466377 119.804114 -0.000004 0.000012 0.000005 52.866084 -3.244054 1.032832 0.000001 0.000026 3.000008 -5.000203 7.999681 -0.000060 -12.290683 -168.196837 1.331450 -179.999991 0.000004 -1.256995 154.646397 2.404111 -0.388321 -0.000001 0.000004 0.021602 66.126538 7.051926 1.930400 25.456957 -7.355619 0.000004 -13.484632 170.725168 0.199058 -0.000004 -0.000005 -1.053670 -29.075729 4.553685 1.724678 -0.000005 -0.000002 -0.381742 69.875212 -6.874264 -2.098258 25.456962 7.355615 -0.000011 
47.850605 -2.293693 104.241005 -0.792127 -2.763397 4.192869 -1.094153 0.259335 -0.011615 1.814574 0.518734 -0.020826 3.459662 0.518444 -0.027039 2.554724 16.528054 -4.121492 -3.652363 -17.588219 -5.145918 -16.841817 -44.919245 -19.701961 752.623517 -40.428887 799.070060 0.000001 -0.000000 -0.000003 53.479053 -0.061984 -0.007709 0.000007 0.000005 -3.000003 -5.000321 -7.998749 0.000202 -20.721764 48.174560 24.651811 -158.576584 120.940138 119.958585 -0.000004 0.000011 0.000006 52.653184 -3.295371 1.043839 -0.000002 0.000026 3.000012 -5.000203 7.999679 -0.000059 -12.462256 -168.454841 1.283817 -179.999991 0.000005 -1.255002 154.446874 2.323422 -0.411576 -0.000001 0.000004 0.033376 66.146223 7.044558 1.946976 25.456960 -7.355618 0.000000 -13.595606 170.832607 0.164293 -0.000006 -0.000005 -1.051251 -29.336516 4.642670 1.764169 -0.000005 -0.000003 -0.382360 69.889583 -6.875426 -2.094076 25.456967 7.355615 -0.000011 
47.825600 -2.284712 104.327003 -0.817282 -2.715934 4.142062 -1.073412 0.254375 -0.010036 1.856043 0.508774 -0.017807 3.501127 0.508521 -0.023901 2.518528 16.411088 -4.122255 -3.704250 -17.505800 -5.151332 -16.847539 -45.387338 -19.716169 752.586853 -40.944508 798.853898 0.000000 0.000001 -0.000000 53.383171 -0.076961 -0.030263 0.000005 0.000005 -3.000002 -5.000322 -7.998746 0.000204 -20.704747 48.395083 24.625144 -158.772323 120.413831 120.072636 -0.000003 0.000012 0.000006 52.449702 -3.354150 1.053819 0.000002 0.000023 3.000011 -5.000204 7.999680 -0.000058 -12.609333 -168.706683 1.240032 -179.999991 0.000005 -1.251996 154.269726 2.243374 -0.434281 -0.000000 0.000004 0.044203 66.163339 7.037679 1.962317 25.456962 -7.355619 0.000003 -13.686918 170.942163 0.128004 -0.000005 -0.000006 -1.048951 -29.580156 4.733234 1.803090 -0.000006 -0.000003 -0.382619 69.906064 -6.876884 -2.089414 25.456962 7.355618 -0.000009 
